<svg xmlns="http://www.w3.org/2000/svg" height="185.853" width="1170.537"><path d="M280.683 178.965c-8.397 4.592-19.31 6.888-32.736 6.888-10.07 0-19.43-1.842-28.077-5.51-8.648-3.674-16.079-8.641-22.287-14.905-6.208-6.264-11.073-13.608-14.599-22.043-3.525-8.43-5.29-17.408-5.29-26.922v-.506c0-9.514 1.765-18.536 5.29-27.046 3.526-8.516 8.391-15.947 14.6-22.292 6.207-6.346 13.638-11.356 22.286-15.031 8.648-3.668 18.17-5.51 28.581-5.51 12.753 0 23.328 2.003 31.727 6.01 8.392 4.005 15.778 9.52 22.156 16.533l-23.416 25.044c-4.368-4.504-8.854-8.098-13.47-10.77-4.618-2.668-10.37-4.004-17.253-4.004-4.865 0-9.277.96-13.213 2.876-3.95 1.922-7.394 4.554-10.327 7.893-2.939 3.344-5.203 7.225-6.801 11.648-1.596 4.424-2.388 9.14-2.388 14.15v.5c0 5.178.792 10.02 2.388 14.531 1.598 4.504 3.906 8.43 6.926 11.767 3.02 3.344 6.632 5.977 10.826 7.892 4.198 1.921 8.896 2.883 14.106 2.883 6.376 0 11.96-1.292 16.74-3.887 4.786-2.584 9.527-6.047 14.231-10.395l22.41 22.548c-6.55 7.182-14.018 13.066-22.41 17.658m154.101-62.997c0-5.01-.843-9.727-2.515-14.151-1.684-4.424-4.117-8.348-7.305-11.773-3.19-3.42-6.97-6.132-11.33-8.142-4.367-2.002-9.154-3.001-14.35-3.001-5.541 0-10.452.96-14.732 2.876-4.28 1.921-7.936 4.555-10.955 7.892-3.02 3.345-5.329 7.225-6.925 11.65-1.599 4.423-2.39 9.14-2.39 14.149v.5c0 5.01.835 9.733 2.514 14.15 1.679 4.43 4.112 8.354 7.307 11.774 3.188 3.425 6.925 6.138 11.205 8.14 4.279 2.004 9.103 3.009 14.475 3.009 5.54 0 10.45-.961 14.73-2.883 4.28-1.914 7.936-4.55 10.956-7.892 3.02-3.338 5.328-7.22 6.926-11.642 1.59-4.424 2.39-9.147 2.39-14.151zm32.232 27.178c-3.695 8.435-8.81 15.822-15.361 22.167-6.546 6.345-14.27 11.356-23.166 15.03-8.897 3.669-18.63 5.51-29.205 5.51-10.413 0-20.065-1.797-28.963-5.385-8.897-3.594-16.577-8.516-23.036-14.78-6.464-6.264-11.548-13.608-15.236-22.043-3.693-8.43-5.54-17.49-5.54-27.172v-.505c0-9.683 1.847-18.743 5.54-27.178 3.688-8.43 8.811-15.816 15.362-22.161 6.545-6.347 14.262-11.356 23.166-15.03 8.896-3.669 18.63-5.51 29.206-5.51 10.406 0 20.058 1.796 28.962 5.384 8.891 3.595 16.571 8.517 23.035 14.775 6.464 6.264 11.541 13.613 15.236 22.042 3.693 8.436 5.54 17.495 5.54 27.178v.5c0 9.689-1.847 18.748-5.54 27.178m136.22-27.678c0-5.552-.88-10.63-2.646-15.255-1.76-4.622-4.118-8.572-7.05-11.853-2.94-3.276-6.383-5.797-10.327-7.563-3.943-1.765-8.179-2.652-12.715-2.652-4.53 0-8.772.887-12.714 2.652-3.944 1.766-7.426 4.287-10.451 7.563-3.02 3.281-5.41 7.187-7.176 11.73-1.759 4.534-2.645 9.663-2.645 15.378v.5c0 5.552.886 10.637 2.645 15.26 1.765 4.624 4.156 8.573 7.176 11.848 3.025 3.283 6.507 5.803 10.45 7.57 3.943 1.765 8.186 2.645 12.715 2.645 4.536 0 8.772-.88 12.715-2.646 3.944-1.766 7.388-4.286 10.327-7.569 2.932-3.275 5.29-7.224 7.05-11.848 1.766-4.623 2.646-9.708 2.646-15.26zm-.506 67.377v-19.117c-4.698 6.296-10.37 11.475-16.996 15.53-6.632 4.06-14.98 6.089-25.056 6.089-7.893 0-15.53-1.498-22.91-4.504-7.394-3.008-13.94-7.475-19.64-13.403-5.71-5.927-10.29-13.19-13.727-21.792-3.444-8.599-5.16-18.488-5.16-29.68v-.5c0-11.187 1.716-21.081 5.16-29.68 3.437-8.597 7.973-15.865 13.595-21.792 5.628-5.928 12.129-10.395 19.516-13.403 7.388-3 15.112-4.504 23.166-4.504 10.239 0 18.674 1.984 25.306 5.964 6.633 3.975 12.217 8.618 16.746 13.914V0h38.278v182.845zm157.127-98.31c-4.873-5.26-11.33-7.892-19.39-7.892-8.056 0-14.563 2.594-19.518 7.768-4.953 5.178-8.178 12.109-9.696 20.788h57.67c-1.18-8.516-4.2-15.404-9.066-20.664m46.202 39.7a184.034 184.034 0 0 1-.375 4.76H711.76c1.847 8.685 5.664 15.236 11.455 19.66 5.796 4.429 12.97 6.638 21.53 6.638 6.378 0 12.086-1.085 17.128-3.257 5.035-2.164 10.23-5.67 15.61-10.519l21.905 19.286c-6.383 7.854-14.1 13.988-23.165 18.412-9.066 4.424-19.728 6.638-31.983 6.638-10.07 0-19.428-1.673-28.076-5.01-8.647-3.338-16.11-8.1-22.405-14.275-6.295-6.177-11.206-13.484-14.73-21.919-3.525-8.43-5.29-17.825-5.29-28.176v-.505c0-9.515 1.633-18.536 4.909-27.047 3.276-8.517 7.843-15.948 13.727-22.293 5.87-6.345 12.877-11.355 21.025-15.03 8.136-3.669 17.159-5.509 27.067-5.509 11.242 0 20.98 2.003 29.21 6.008 8.224 4.006 15.062 9.396 20.522 16.16 5.452 6.756 9.482 14.524 12.085 23.29 2.601 8.766 3.905 17.906 3.905 27.428v.5c0 1.84-.044 3.425-.13 4.76m112.934-38.322c-12.759 0-22.785 3.843-30.092 11.518-7.299 7.686-10.95 19.628-10.95 35.82v49.594h-38.277V48.591h38.278v27.053c3.856-9.184 9.146-16.533 15.86-22.043 6.713-5.509 15.778-8.017 27.197-7.512v39.824zm32.737-37.322H990v134.255h-38.27zM950.718.001h40.293v33.816h-40.293zm182.047 115.967c0-5.01-.842-9.727-2.514-14.151-1.684-4.424-4.118-8.348-7.306-11.773-3.188-3.42-6.969-6.132-11.33-8.142-4.368-2.002-9.154-3.001-14.35-3.001-5.54 0-10.45.96-14.732 2.876-4.28 1.921-7.936 4.555-10.956 7.892-3.018 3.345-5.328 7.225-6.925 11.65-1.597 4.423-2.39 9.14-2.39 14.149v.5c0 5.01.837 9.733 2.515 14.15 1.678 4.43 4.112 8.354 7.307 11.774 3.188 3.425 6.925 6.138 11.204 8.14 4.281 2.004 9.104 3.009 14.476 3.009 5.54 0 10.45-.961 14.73-2.883 4.28-1.914 7.937-4.55 10.957-7.892 3.02-3.338 5.328-7.22 6.925-11.642 1.59-4.424 2.39-9.147 2.39-14.151zm32.232 27.178c-3.694 8.435-8.809 15.822-15.36 22.167-6.546 6.345-14.27 11.356-23.166 15.03-8.898 3.669-18.63 5.51-29.207 5.51-10.413 0-20.065-1.797-28.961-5.385-8.898-3.594-16.578-8.516-23.036-14.78-6.463-6.264-11.548-13.608-15.236-22.043-3.694-8.43-5.54-17.49-5.54-27.172v-.505c0-9.683 1.846-18.743 5.54-27.178 3.688-8.43 8.81-15.816 15.361-22.161 6.545-6.347 14.263-11.356 23.167-15.03 8.896-3.669 18.63-5.51 29.205-5.51 10.407 0 20.059 1.796 28.961 5.384 8.891 3.595 16.572 8.517 23.036 14.775 6.463 6.264 11.542 13.613 15.236 22.042 3.694 8.436 5.54 17.495 5.54 27.178v.5c0 9.689-1.846 18.748-5.54 27.178M112.46 171.929H-.3V159.15h112.76z" fill="#de1e46"/></svg>
